@startuml
title Servo Hat Node Class Diagram

package ros {
  class Subscriber
}
package std_msgs {
  class uint16_t <<(M,#FFFF00)>>
}
package eros {
  class BaseNode
  class BaseNodeProcess
}

package ros_hats {
  class ServoHatNode #Orange {
      +const std::string BASE_NODE_NAME
      +const uint16_t MAJOR_RELEASE_VERSION
      +const uint16_t MINOR_RELEASE_VERSION
      +const uint16_t BUILD_NUMBER
      +const std::string FIRMWARE_DESCRIPTION
      +const eros::System::MainSystem DIAGNOSTIC_SYSTEM
      +const eros::System::SubSystem DIAGNOSTIC_SUBSYSTEM
      +const eros::System::Component DIAGNOSTIC_COMPONENT
      +ServoHatNodeProcess* get_process()
      +bool start()
      +eros::eros_diagnostic::Diagnostic finish_initialization()
      +bool run_loop1()
      +bool run_loop2()
      +bool run_loop3()
      +bool run_001hz()
      +bool run_01hz()
      +bool run_01hz_noisy()
      +bool run_1hz()
      +bool run_10hz()
      +thread_loop()
      +cleanup()
      +bool changenodestate_service(eros::srv_change_nodestate::Request& req, eros::srv_change_nodestate::Response& res)
      +system_commandAction_Callback(const eros::system_commandGoalConstPtr& goal)
      +command_Callback(const eros::command::ConstPtr& t_msg)
      +servomsg_Callback(const std_msgs::uint16_t::ConstPtr& t_msg)
      +bool new_servo_command(std::string topic_name,std_msgs::uint16_t msg)

      -ServoHatNodeProcess* process;
      -ros::Subscriber[] servo_channel_subs
  }
  class ServoHatNodeProcess #Orange {
      +eros::eros_diagnostic::Diagnostic finish_initialization()
      +reset()
      +eros::eros_diagnostic::Diagnostic update(double t_dt, double t_ros_time)
      +std::vector<eros::eros_diagnostic::Diagnostic> new_commandmsg(eros::command msg)
      +std::vector<eros::eros_diagnostic::Diagnostic> check_programvariables()
      +cleanup()
      +bool new_servo_command(std::string channel_name,std_msgs::uint16_t msg)
      +uint8_t lookup_pinumber(std::string channel_name)

      -IServoHatDriver driver

  }
  class IServoHatDriver #Orange 
  BaseNode <|-- ServoHatNode
  BaseNodeProcess <|-- ServoHatNodeProcess
  ServoHatNode -> ServoHatNodeProcess
  ServoHatNodeProcess -> IServoHatDriver
}
@enduml